<?xml version="1.0" encoding="UTF-8"?>
<svg id="Layer_2" data-name="Layer 2" xmlns="http://www.w3.org/2000/svg" width="206.44" height="60.71" xmlns:xlink="http://www.w3.org/1999/xlink" viewBox="0 0 206.44 60.71">
  <defs>
    <clipPath id="clippath">
      <rect width="206.44" height="60.71" style="fill: none;"/>
    </clipPath>
  </defs>
  <g id="Layer_1-2" data-name="Layer 1">
    <g style="clip-path: url(#clippath);">
      <path d="m31.32,40.68c1.57-2.97,6.31-2.56,7.26.71.87,3.01-2.01,6.55-4.1,8.42-2.39,2.14-5.45,3.45-8.63,3.8-.61.07-1.22.1-1.82.1-3.4,0-6.55-1.1-9.11-2.96-.01,0-.02-.02-.03-.03-.69-.5-1.35-1.07-1.95-1.68-.46-.44-.9-.89-1.32-1.35-4.44-4.87-7.11-11.38-7-18.51.23-14.42,12.01-26.19,26.44-26.4,8.23-.12,15.63,3.47,20.62,9.21C46.48,4.68,37.9-.08,28.21,0,12.81.13.2,12.67,0,28.07c-.2,14.99,11.2,27.36,25.78,28.71,6.87.64,13.94-2.24,18.37-7.53,1.13-1.36,2.09-2.9,2.78-4.53.8-1.88,1.28-4.46,2.85-5.88.21-.19.44-.37.69-.51.65-.39,1.4-.61,2.22-.61,1.91,0,3.68,1.42,4.18,3.26-.03-.12-.03-.24-.04-.36-.04-.26-.06-.53-.06-.81,0-1.51.53-2.91,1.42-4,.53-.65,1.19-1.19,1.94-1.59.88-.47,1.89-.74,2.96-.74,3.49,0,6.32,2.83,6.32,6.32,0,1.08-.27,2.09-.75,2.98.75-1.04,1.38-2.18,1.9-3.41,2.47-8.07-1.77-16.75-9.79-19.67-.99-.36-1.99-.62-2.99-.78-.3-.05-.59-.08-.89-.11-1.9-.2-3.79-.04-5.59.43-.08.02-.16.05-.24.06-1.38.38-2.7.94-3.93,1.67-.52.31-1.02.65-1.51,1.01-.55.41-1.07.86-1.56,1.36,0,0-.02.01-.02.02,0,0-.01-.02-.02-.02-.12-.12-.23-.23-.36-.34,0,0,0-.02-.02-.02-.38-.35-.78-.69-1.19-1-.48-.37-.99-.71-1.51-1.01-1.23-.73-2.55-1.3-3.93-1.67-.08-.02-.15-.04-.23-.06-3.03-.79-6.31-.69-9.47.46-2.2.8-4.12,2.04-5.69,3.58-4.15,4.07-5.9,10.24-4.1,16.09.51,1.23,1.15,2.37,1.9,3.41-.48-.89-.75-1.9-.75-2.98,0-3.49,2.83-6.32,6.32-6.32s6.32,2.83,6.32,6.32" style="fill: #f7fbfd;"/>
      <path d="m46.92,14.11l-2.85,1.93-2.85-1.93c-.45-.3-1.01.18-.77.67l1.97,4.05c.25.67.89,1.14,1.65,1.14.63,0,1.17-.33,1.48-.82.03-.03.05-.07.07-.11l2.08-4.26c.24-.49-.32-.98-.77-.67" style="fill: #f7fbfd;"/>
      <text transform="translate(78.43 56.23)" style="fill: #f7fbfd; font-family: Montserrat-Regular, Montserrat; font-size: 17.1px;"><tspan x="0" y="0" style="letter-spacing: 0em;">T</tspan><tspan x="9.65" y="0" style="letter-spacing: .02em;">R</tspan><tspan x="22.41" y="0" style="letter-spacing: -.06em;">A</tspan><tspan x="33.63" y="0" style="letter-spacing: 0em;">V</tspan><tspan x="45.41" y="0" style="letter-spacing: -.04em;">E</tspan><tspan x="56.19" y="0" style="letter-spacing: 0em;">L</tspan></text>
      <text transform="translate(77.01 39.33) rotate(-.24)" style="fill: #f7fbfd; font-family: Zenon-Medium, Zenon; font-size: 34.21px; font-weight: 500;"><tspan x="0" y="0" style="letter-spacing: -.02em;">W</tspan><tspan x="34.48" y="0" style="letter-spacing: .03em;">e</tspan><tspan x="52.47" y="0" style="letter-spacing: 0em;">t</tspan></text>
      <text transform="translate(148.99 39.19) rotate(-.24)" style="fill: #f7fbfd; font-family: Zenon-Medium, Zenon; font-size: 34.21px; font-weight: 500;"><tspan x="0" y="0" style="letter-spacing: .03em;">B</tspan><tspan x="23.36" y="0" style="letter-spacing: .02em;">a</tspan><tspan x="42.11" y="0">t</tspan></text>
    </g>
  </g>
</svg>